<?xml version="1.0" standalone="no"?>
<!DOCTYPE svg PUBLIC "-//W3C//DTD SVG 20010904//EN"
 "http://www.w3.org/TR/2001/REC-SVG-20010904/DTD/svg10.dtd">
<svg version="1.0" xmlns="http://www.w3.org/2000/svg"
 width="151.000000pt" height="40.000000pt" viewBox="0 0 151.000000 40.000000"
 preserveAspectRatio="xMidYMid meet">

<g transform="translate(0.000000,40.000000) scale(0.100000,-0.100000)"
fill="#000000" stroke="none">
<path d="M1107 343 c-2 -5 -5 -56 -6 -115 -3 -102 -2 -108 17 -108 11 0 22 6
25 13 4 10 7 9 18 0 36 -34 89 5 89 65 0 63 -32 82 -92 57 -16 -6 -18 -1 -18
44 0 38 -4 51 -14 51 -8 0 -17 -3 -19 -7z m91 -115 c32 -32 1 -89 -37 -68 -25
13 -27 42 -5 64 19 19 26 20 42 4z"/>
<path d="M130 195 c0 -68 2 -75 20 -75 16 0 20 7 20 36 0 45 15 74 40 74 13 0
20 7 20 20 0 23 -19 26 -39 8 -11 -10 -14 -10 -18 0 -3 6 -13 12 -24 12 -17 0
-19 -8 -19 -75z"/>
<path d="M250 250 c-30 -30 -27 -95 4 -115 31 -20 90 -16 94 6 2 12 -4 15 -26
11 -18 -2 -33 2 -41 12 -12 14 -8 16 38 16 43 0 51 3 51 19 0 10 -9 30 -21 45
-25 32 -70 35 -99 6z m74 -25 c4 -11 -2 -15 -24 -15 -29 0 -38 9 -23 23 12 12
41 7 47 -8z"/>
<path d="M380 195 c0 -68 2 -75 20 -75 17 0 20 7 20 43 0 51 11 70 36 65 15
-2 20 -14 22 -56 3 -43 6 -52 22 -52 16 0 19 9 22 53 3 45 6 52 26 55 21 3 22
0 22 -52 0 -49 2 -56 20 -56 18 0 20 7 20 63 0 36 -5 68 -12 75 -15 15 -51 15
-66 0 -9 -9 -15 -9 -24 0 -16 16 -50 15 -67 0 -11 -10 -14 -10 -18 0 -3 6 -13
12 -24 12 -17 0 -19 -8 -19 -75z"/>
<path d="M655 245 c-14 -13 -25 -36 -25 -50 0 -35 42 -75 78 -75 43 0 82 35
82 73 0 38 -7 50 -37 66 -35 18 -72 13 -98 -14z m90 -26 c4 -5 4 -21 1 -35 -5
-20 -12 -25 -34 -22 -27 3 -39 25 -28 54 6 16 52 19 61 3z"/>
<path d="M817 195 c24 -67 29 -75 52 -75 23 0 29 8 53 75 l27 75 -23 0 c-20 0
-26 -8 -36 -50 -7 -27 -15 -50 -19 -50 -4 0 -13 23 -20 50 -11 42 -16 50 -37
50 l-23 0 26 -75z"/>
<path d="M970 250 c-30 -30 -27 -95 4 -115 31 -20 90 -16 94 6 2 12 -4 15 -26
11 -18 -2 -33 2 -41 12 -12 14 -8 16 38 16 43 0 51 3 51 19 0 10 -9 30 -21 45
-25 32 -70 35 -99 6z m74 -25 c4 -11 -2 -15 -24 -15 -29 0 -38 9 -23 23 12 12
41 7 47 -8z"/>
<path d="M1290 252 c-30 -25 -32 -85 -2 -114 19 -20 26 -21 52 -11 27 10 30 9
30 -8 0 -24 -35 -42 -67 -34 -20 5 -24 2 -21 -12 5 -25 80 -23 108 2 17 16 20
31 20 107 0 81 -2 88 -20 88 -11 0 -20 -5 -20 -12 0 -9 -3 -9 -12 0 -17 17
-42 15 -68 -6z m64 -18 c21 -8 22 -70 1 -78 -21 -8 -45 3 -46 23 -2 28 3 46
14 53 15 9 12 9 31 2z"/>
</g>
</svg>
